<svg xmlns="http://www.w3.org/2000/svg" width="39.323" height="39.264" viewBox="0 0 39.323 39.264"><defs><style>.a{fill:#fecb2e;}.b{fill:#fd9e35;}.c{fill:#f2e3cb;}.d{fill:#92e170;}.e{fill:#1fc979;}.f{fill:#fef176;}.g{fill:#ffe42f;}.h{fill:#fef284;}</style></defs><g transform="translate(0 -0.401)"><g transform="translate(0 0.401)"><g transform="translate(0 7.65)"><path class="a" d="M7.374,100.009a14.845,14.845,0,0,0,7.47,27.674l3.3-16.636-3.3-11.038Z" transform="translate(0 -100.009)"/><path class="b" d="M200.743,100.009h-7.47v27.674a14.845,14.845,0,0,0,7.47-27.674Z" transform="translate(-178.429 -100.009)"/></g><path class="c" d="M0,0H7.881V2.312H0Z" transform="translate(14.441 7.613) rotate(-74.991)"/><g transform="translate(1.626 2.557)"><path class="d" d="M28.373,33.692h-7.2v1.043a6.9,6.9,0,0,0,6.889,6.889h6.329l1.088-2.28-1.088-2.121A6.894,6.894,0,0,0,28.373,33.692Z" transform="translate(-21.168 -33.692)"/><path class="e" d="M197.337,56.252a5.488,5.488,0,0,0-4.065,1.8h0v4.4h4.3a5.507,5.507,0,0,0,5.5-5.5v-.7h-5.74Z" transform="translate(-180.054 -54.519)"/></g><g transform="translate(6.792 13.225)"><path class="f" d="M118.538,172.6h2.312v2.312h-2.312Z" transform="translate(-116.226 -172.595)"/><path class="f" d="M88.433,202.7h2.312v2.312H88.433Z" transform="translate(-88.433 -200.389)"/></g></g><g transform="translate(16.368 16.807)"><path class="a" d="M215.478,375.648l-2.361,2.167a13.677,13.677,0,0,0,9.568,4.014,13.352,13.352,0,0,0,9.471-3.917q.117-.117.231-.237l-2.722-4.309-3.922-2.336Z" transform="translate(-213.117 -358.971)"/><path class="b" d="M383.9,214l-2.472,2.472-3.761,9.507-.181.081,6.645,6.645A13.41,13.41,0,0,0,383.9,214Z" transform="translate(-364.866 -214.003)"/></g><g transform="translate(18.729 19.279)"><path class="a" d="M361.109,246.188l-5.633,7.9,5.613,5.613A10.071,10.071,0,0,0,361.109,246.188Z" transform="translate(-346.904 -246.188)"/><path class="g" d="M252.433,349.017l-.357.5-8.215,5.807a10.07,10.07,0,0,0,13.856-.349q.17-.17.329-.346l-2.752-3.68Z" transform="translate(-243.861 -341.119)"/></g><path class="h" d="M251.3,334.274l-7.44,7.44a10.07,10.07,0,0,0,13.856-.349q.17-.17.329-.346l-3.386-4.528ZM250.6,342a7.769,7.769,0,0,1-3.122-.652l3.462-3.462.049,4.1Q250.8,342,250.6,342Zm2.7-.478-.043-3.612,2.3,2.3A7.675,7.675,0,0,1,253.3,341.524Z" transform="translate(-225.131 -308.23)"/><path class="g" d="M347.5,246.188l-6.765,6.765,6.746,6.746A10.071,10.071,0,0,0,347.5,246.188Zm-.363,3.622a7.738,7.738,0,0,1,.642,2.749l-3.419.028Zm.407,5.063a7.685,7.685,0,0,1-1.008,2.292l-2.265-2.265Z" transform="translate(-314.563 -226.909)"/></g></svg>